{"asset":{"generator":"UE Viewer (umodel) build 1085","version":"2.0"},"scene":0,"scenes":[{"nodes":[0]}],"nodes":[{"name":"WHEEL_Star_SM","mesh":0}],"materials":[{"name":"Wheel_OEM_MIC"}],"meshes":[{"primitives":[{"attributes":{"POSITION":1,"NORMAL":2,"TANGENT":3,"TEXCOORD_0":4},"indices":0,"material":0}],"name":"WHEEL_Star_SM"}],"buffers":[{"uri":"WHEEL_Star_SM.bin","byteLength":118980}],"bufferViews":[{"buffer":0,"byteOffset":0,"byteLength":16788},{"buffer":0,"byteOffset":16788,"byteLength":25548},{"buffer":0,"byteOffset":42336,"byteLength":25548},{"buffer":0,"byteOffset":67884,"byteLength":34064},{"buffer":0,"byteOffset":101948,"byteLength":17032}],"accessors":[{"bufferView":0,"componentType":5123,"count":8394,"type":"SCALAR"},{"bufferView":1,"min":[-0.16313,-0.16313,-0.0726439],"max":[0.16313,0.16313,0.0726439],"componentType":5126,"count":2129,"type":"VEC3"},{"bufferView":2,"componentType":5126,"count":2129,"type":"VEC3"},{"bufferView":3,"componentType":5126,"count":2129,"type":"VEC4"},{"bufferView":4,"componentType":5126,"count":2129,"type":"VEC2"}]}