{"asset":{"generator":"UE Viewer (umodel) build 1085","version":"2.0"},"scene":0,"scenes":[{"nodes":[0]}],"nodes":[{"name":"Body_Grain_Lenses_SM","mesh":0}],"materials":[{"name":"MIC_PlasticLens_VertColor"}],"meshes":[{"primitives":[{"attributes":{"POSITION":1,"NORMAL":2,"TANGENT":3,"TEXCOORD_0":4},"indices":0,"material":0}],"name":"Body_Grain_Lenses_SM"}],"buffers":[{"uri":"Body_Grain_Lenses_SM.bin","byteLength":131772}],"bufferViews":[{"buffer":0,"byteOffset":0,"byteLength":23436},{"buffer":0,"byteOffset":23436,"byteLength":27084},{"buffer":0,"byteOffset":50520,"byteLength":27084},{"buffer":0,"byteOffset":77604,"byteLength":36112},{"buffer":0,"byteOffset":113716,"byteLength":18056}],"accessors":[{"bufferView":0,"componentType":5123,"count":11718,"type":"SCALAR"},{"bufferView":1,"min":[-0.568198,-0.0893709,-0.293211],"max":[0.728454,0.180995,0.293211],"componentType":5126,"count":2257,"type":"VEC3"},{"bufferView":2,"componentType":5126,"count":2257,"type":"VEC3"},{"bufferView":3,"componentType":5126,"count":2257,"type":"VEC4"},{"bufferView":4,"componentType":5126,"count":2257,"type":"VEC2"}]}