{"asset":{"generator":"UE Viewer (umodel) build 1085","version":"2.0"},"scene":0,"scenes":[{"nodes":[0]}],"nodes":[{"name":"Grass_Base","mesh":0}],"materials":[{"name":"dummy_material_0"},{"name":"dummy_material_1"}],"meshes":[{"primitives":[{"attributes":{"POSITION":1,"NORMAL":2,"TANGENT":3,"TEXCOORD_0":4,"TEXCOORD_1":5},"indices":0,"material":0},{"attributes":{"POSITION":7,"NORMAL":8,"TANGENT":9,"TEXCOORD_0":10,"TEXCOORD_1":11},"indices":6,"material":1}],"name":"Grass_Base"}],"buffers":[{"uri":"Grass_Base.bin","byteLength":98224}],"bufferViews":[{"buffer":0,"byteOffset":0,"byteLength":7560},{"buffer":0,"byteOffset":7560,"byteLength":8904},{"buffer":0,"byteOffset":16464,"byteLength":8904},{"buffer":0,"byteOffset":25368,"byteLength":11872},{"buffer":0,"byteOffset":37240,"byteLength":5936},{"buffer":0,"byteOffset":43176,"byteLength":5936},{"buffer":0,"byteOffset":49112,"byteLength":7560},{"buffer":0,"byteOffset":56672,"byteLength":8904},{"buffer":0,"byteOffset":65576,"byteLength":8904},{"buffer":0,"byteOffset":74480,"byteLength":11872},{"buffer":0,"byteOffset":86352,"byteLength":5936},{"buffer":0,"byteOffset":92288,"byteLength":5936}],"accessors":[{"bufferView":0,"componentType":5123,"count":3780,"type":"SCALAR"},{"bufferView":1,"min":[-38.06,-0.000291138,-1.33708e-11],"max":[38.06,0.159997,57.5999],"componentType":5126,"count":742,"type":"VEC3"},{"bufferView":2,"componentType":5126,"count":742,"type":"VEC3"},{"bufferView":3,"componentType":5126,"count":742,"type":"VEC4"},{"bufferView":4,"componentType":5126,"count":742,"type":"VEC2"},{"bufferView":5,"componentType":5126,"count":742,"type":"VEC2"},{"bufferView":6,"componentType":5123,"count":3780,"type":"SCALAR"},{"bufferView":7,"min":[-38.06,-0.000291138,-57.5999],"max":[38.06,0.159997,7.75626e-06],"componentType":5126,"count":742,"type":"VEC3"},{"bufferView":8,"componentType":5126,"count":742,"type":"VEC3"},{"bufferView":9,"componentType":5126,"count":742,"type":"VEC4"},{"bufferView":10,"componentType":5126,"count":742,"type":"VEC2"},{"bufferView":11,"componentType":5126,"count":742,"type":"VEC2"}]}