{"asset":{"generator":"UE Viewer (umodel) build 1085","version":"2.0"},"scene":0,"scenes":[{"nodes":[0]}],"nodes":[{"name":"Body_Grain_SK","mesh":0,"skin":0,"children":[1]},{"name":"root_jnt","children":[2,23,26,29,31],"translation":[0,0,0],"rotation":[0,0,0,-1]},{"name":"chassis_jnt","children":[3,6,9,12,15,16,17,18,19,20,21,22],"translation":[0,0,0],"rotation":[0,0,0,1]},{"name":"FL_axleShaft_jnt","children":[4],"translation":[0.48814,-0.0611183,-0.129921],"rotation":[0,0.707107,0,0.707107]},{"name":"FL_Shock_c_jnt","children":[5],"translation":[0.0866142,-3.49677e-17,-1.40565e-06],"rotation":[6.77534e-06,-0.707107,6.75426e-06,0.707107]},{"name":"FL_Shock_B_jnt","translation":[-5.59482e-17,0.0484252,0],"rotation":[-4.80728e-08,0.997859,0.0654031,7.33867e-08]},{"name":"FR_axleShaft_jnt","children":[7],"translation":[0.48814,-0.0611183,0.129921],"rotation":[0,0.707107,0,0.707107]},{"name":"FR_Shock_c_jnt","children":[8],"translation":[-0.0866142,-3.49677e-17,-1.41752e-06],"rotation":[1.05367e-08,-0.707107,-1.05367e-08,0.707107]},{"name":"FR_Shock_B_jnt","translation":[0,0.0484252,0],"rotation":[-1.45901e-08,0.997859,-0.0654031,8.10972e-08]},{"name":"BL_axleShaft_jnt","children":[10],"translation":[-0.365143,-0.0465031,-0.129921],"rotation":[-1.42612e-06,0.707107,-1.42612e-06,0.707107]},{"name":"BL_Shock_c_jnt","children":[11],"translation":[0.0925196,-1.74687e-07,-1.67534e-06],"rotation":[1.49466e-06,-0.707107,1.49466e-06,0.707107]},{"name":"BL_Shock_B_jnt","translation":[0,0.053937,-2.79741e-17],"rotation":[-3.28814e-09,0.999048,0.0436194,7.53108e-08]},{"name":"BR_axleShaft_jnt","children":[13],"translation":[-0.365143,-0.0465031,0.129921],"rotation":[-9.14896e-07,0.707107,-9.14896e-07,0.707107]},{"name":"BR_Shock_c_jnt","children":[14],"translation":[-0.0925197,1.12066e-07,-1.67534e-06],"rotation":[8.24057e-07,-0.707107,8.24057e-07,0.707107]},{"name":"BR_Shock_B_jnt","translation":[0,0.053937,2.79741e-17],"rotation":[2.67092e-18,0.999048,-0.0436194,6.11741e-17]},{"name":"FL_Shock_A_jnt","translation":[0.488139,0.104406,-0.201116],"rotation":[-1.28688e-07,0.997858,0.0654127,-2.11216e-08]},{"name":"FR_Shock_A_jnt","translation":[0.488139,0.104407,0.201119],"rotation":[-4.95105e-09,0.997859,-0.0654031,3.24509e-10]},{"name":"BL_Shock_A_jnt","translation":[-0.365145,0.144704,-0.210431],"rotation":[-4.00737e-09,0.999048,0.0436194,9.17839e-08]},{"name":"BR_Shock_A_jnt","translation":[-0.365145,0.144705,0.210431],"rotation":[2.27768e-09,0.999048,-0.0436194,5.21674e-08]},{"name":"en_panel_left_JNT","translation":[-0.539744,0.0836653,-0.0728419],"rotation":[-0.707107,0,0,0.707107]},{"name":"en_panel_right_JNT","translation":[-0.539744,0.0836653,0.0728445],"rotation":[0.707107,0,0,0.707107]},{"name":"en_panel_up_JNT","translation":[-0.5872,0.216924,9.85589e-07],"rotation":[0,0,0,1]},{"name":"en_panel_low_JNT","translation":[-0.5872,-0.0495922,0],"rotation":[1,0,0,2.83277e-16]},{"name":"FL_WheelTranslation_jnt","children":[24],"translation":[0.488139,-0.0611165,-0.269291],"rotation":[9.56687e-06,9.89972e-13,1.03479e-07,1]},{"name":"FL_Pivot_jnt","children":[25],"translation":[-1.11896e-16,6.99353e-18,-0.00523622],"rotation":[5.0822e-21,-6.72623e-44,-1.32349e-23,1]},{"name":"FL_Disc_jnt","translation":[0,1.22869e-06,-0.0110864],"rotation":[-5.0822e-21,2.18557e-08,2.64699e-23,1]},{"name":"FR_WheelTranslation_jnt","children":[27],"translation":[0.488139,-0.0611165,0.269291],"rotation":[0,0,8.13458e-08,1]},{"name":"FR_Pivot_jnt","children":[28],"translation":[1.11896e-16,1.39871e-17,0.00523622],"rotation":[0,0,0,1]},{"name":"FR_Disc_jnt","translation":[-5.59482e-17,1.22869e-06,0.0110864],"rotation":[0,0,0,1]},{"name":"BL_WheelTranslation_jnt","children":[30],"translation":[-0.365145,-0.0465027,-0.28622],"rotation":[0,0,0,1]},{"name":"BL_Disc_jnt","translation":[0,2.00008e-07,-0.00942913],"rotation":[0,0,0,1]},{"name":"BR_WheelTranslation_jnt","children":[32],"translation":[-0.365145,-0.0465025,0.286221],"rotation":[0,0,0,1]},{"name":"BR_Disc_jnt","translation":[0,2.00008e-07,0.00942913],"rotation":[0,0,0,1]}],"skins":[{"inverseBindMatrices":0,"skeleton":1,"joints":[1,2,3,4,5,6,7,8,9,10,11,12,13,14,15,16,17,18,19,20,21,22,23,24,25,26,27,28,29,30,31,32]}],"materials":[{"name":"MIC_Chassis_Grain"},{"name":"MIC_Body_Grain"}],"meshes":[{"primitives":[{"attributes":{"POSITION":2,"NORMAL":3,"TANGENT":4,"JOINTS_0":5,"WEIGHTS_0":6,"TEXCOORD_0":7,"TEXCOORD_1":8},"indices":1,"material":0},{"attributes":{"POSITION":10,"NORMAL":11,"TANGENT":12,"JOINTS_0":13,"WEIGHTS_0":14,"TEXCOORD_0":15,"TEXCOORD_1":16},"indices":9,"material":1}],"name":"Body_Grain_SK"}],"buffers":[{"uri":"Body_Grain_SK.bin","byteLength":3256052}],"bufferViews":[{"buffer":0,"byteOffset":0,"byteLength":2048},{"buffer":0,"byteOffset":2048,"byteLength":122352},{"buffer":0,"byteOffset":124400,"byteLength":172032},{"buffer":0,"byteOffset":296432,"byteLength":172032},{"buffer":0,"byteOffset":468464,"byteLength":229376},{"buffer":0,"byteOffset":697840,"byteLength":114688},{"buffer":0,"byteOffset":812528,"byteLength":57344},{"buffer":0,"byteOffset":869872,"byteLength":114688},{"buffer":0,"byteOffset":984560,"byteLength":114688},{"buffer":0,"byteOffset":1099248,"byteLength":275040},{"buffer":0,"byteOffset":1374288,"byteLength":332076},{"buffer":0,"byteOffset":1706364,"byteLength":332076},{"buffer":0,"byteOffset":2038440,"byteLength":442768},{"buffer":0,"byteOffset":2481208,"byteLength":221384},{"buffer":0,"byteOffset":2702592,"byteLength":110692},{"buffer":0,"byteOffset":2813284,"byteLength":221384},{"buffer":0,"byteOffset":3034668,"byteLength":221384}],"accessors":[{"bufferView":0,"componentType":5126,"count":32,"type":"MAT4"},{"bufferView":1,"componentType":5123,"count":61176,"type":"SCALAR"},{"bufferView":2,"min":[-0.614486,-0.126741,-0.317932],"max":[0.750406,0.183518,0.317932],"componentType":5126,"count":14336,"type":"VEC3"},{"bufferView":3,"componentType":5126,"count":14336,"type":"VEC3"},{"bufferView":4,"componentType":5126,"count":14336,"type":"VEC4"},{"bufferView":5,"componentType":5123,"count":14336,"type":"VEC4"},{"bufferView":6,"normalized":true,"componentType":5121,"count":14336,"type":"VEC4"},{"bufferView":7,"componentType":5126,"count":14336,"type":"VEC2"},{"bufferView":8,"componentType":5126,"count":14336,"type":"VEC2"},{"bufferView":9,"componentType":5123,"count":137520,"type":"SCALAR"},{"bufferView":10,"min":[-0.623896,-0.138302,-0.357124],"max":[0.780319,0.334147,0.357124],"componentType":5126,"count":27673,"type":"VEC3"},{"bufferView":11,"componentType":5126,"count":27673,"type":"VEC3"},{"bufferView":12,"componentType":5126,"count":27673,"type":"VEC4"},{"bufferView":13,"componentType":5123,"count":27673,"type":"VEC4"},{"bufferView":14,"normalized":true,"componentType":5121,"count":27673,"type":"VEC4"},{"bufferView":15,"componentType":5126,"count":27673,"type":"VEC2"},{"bufferView":16,"componentType":5126,"count":27673,"type":"VEC2"}]}